# xmcd CD database file
#
# Track frame offsets:
#	150
#	21440
#	40637
#	61980
#	83460
#
# Disc length: 1368 seconds
#
# Revision: 0
# Processed by: cddbd v1.5PL3 Copyright (c) Steve Scherf et al.
# Submitted via: CDex 1.50beta10
#
DISCID=30055605
DTITLE=桃宮いちご(中島沙樹) - キラメキの海を越えて
DYEAR=1900
DGENRE=Anime
TTITLE0=キラメキの海を越えて
TTITLE1=rondo
TTITLE2=いちごと沙樹のストロベリートーク
TTITLE3=キラメキの海を越えて(オリジナルカラオケ)
TTITLE4=rondo(オリジナルカラオケ)
EXTD=
EXTT0=
EXTT1=
EXTT2=
EXTT3=
EXTT4=
PLAYORDER=
